<svg width="32" height="32" viewBox="0 0 32 32" fill="none" xmlns="http://www.w3.org/2000/svg">
<path fill-rule="evenodd" clip-rule="evenodd" d="M25.3095 2H22.3994V10.3699L25.3095 9.56418V2ZM19.4095 3.34889V11.194L19.2769 11.2311L16.4994 12.005V3.34889H19.4095ZM14.0984 4.93063H11.1882V13.4807L14.0984 12.6697V4.93063ZM8.74471 6.82914V14.1548L8.61219 14.1919L5.8399 14.9658V6.82914H8.74471ZM23.3163 11.3196L25.3094 10.4184L27.2645 9.53361L27.2639 9.53398L25.3096 10.4661L23.5126 11.3196L9.39672 18.025L11.1778 23.2569L12.1584 18.6187L24.3024 11.3196L25.3096 10.71L27.2589 9.53719L25.3092 10.7895L24.4876 11.3196L12.8948 18.7671L19.8282 23.4106L27.2649 9.53358L27.2656 9.53321L27.265 9.53347L27.2651 9.53336L27.2654 9.53321L27.2651 9.53329L27.2651 9.53321L27.2649 9.53333L25.3094 10.0792L22.3993 10.8849L19.4097 11.7118L16.4996 12.5228L14.0983 13.1854L11.1882 13.9964L8.74457 14.6696L5.83446 15.4807L3.3325 16.1751L9.04141 17.7653L23.3163 11.3196ZM14.7393 20.5695L11.6277 23.3577L12.7462 19.0111L14.7393 20.5695ZM28.3889 21.8077L29.2688 21.4844L29.0302 22.3855C29.0196 22.4173 28.2457 25.3433 28.691 27.2198L27.7422 27.4424C27.4718 26.2922 27.5831 24.8663 27.7528 23.7796C26.788 24.9511 24.8533 27.0343 22.1605 28.6722C19.8599 30.0769 17.4799 30.8508 15.0893 30.978C14.5539 31.0098 14.0185 31.0045 13.4831 30.9674C11.0289 30.8031 8.57994 29.955 6.17869 28.439L6.69817 27.6174C11.6756 30.7607 16.6954 30.8455 21.6251 27.8612C24.2278 26.2869 26.1254 24.2196 27.0372 23.1117C25.0494 23.3821 22.8549 23.2124 22.7329 23.2018L22.8125 22.2318C22.8496 22.2371 26.4488 22.518 28.3889 21.8077ZM5.62794 30.1413C5.30459 30.0777 4.99715 29.9611 4.71621 29.7967C4.44057 29.6271 4.18613 29.4204 3.9794 29.1713C3.77267 28.9221 3.60835 28.6412 3.49703 28.3443C3.38042 28.0475 3.32741 27.7241 3.32211 27.4061C3.31681 27.0881 3.36451 26.77 3.46523 26.4679C3.56594 26.1657 3.71967 25.8848 3.91579 25.6304C4.11192 25.3812 4.35045 25.1639 4.62079 24.989C4.88583 24.814 5.18797 24.6974 5.49542 24.6232C5.80816 24.549 6.13151 24.5331 6.44955 24.5702C6.60858 24.5861 6.7676 24.6232 6.92132 24.6656C7.07504 24.708 7.22877 24.7663 7.37189 24.8352C7.94967 25.1162 8.43734 25.6038 8.71298 26.1975C8.78189 26.346 8.84019 26.4997 8.8879 26.6587C8.93031 26.8177 8.96211 26.982 8.97801 27.1464C9.01512 27.475 8.99392 27.8143 8.9144 28.1429C8.97271 27.9839 9.00982 27.8196 9.03632 27.6499C9.06283 27.4803 9.07343 27.3107 9.06813 27.1411C9.06283 26.7965 8.98862 26.452 8.8614 26.1339C8.73418 25.8106 8.54865 25.5084 8.31542 25.2487C8.08219 24.989 7.80125 24.7663 7.4885 24.602C6.86831 24.2681 6.12091 24.1673 5.42651 24.3105C4.72681 24.4589 4.09072 24.8617 3.65076 25.4183C3.43342 25.6993 3.2638 26.0226 3.15248 26.3566C3.09948 26.5262 3.05707 26.7011 3.03057 26.876C3.00406 27.051 2.99346 27.2312 3.00406 27.4061C3.01996 27.7613 3.08888 28.1164 3.22669 28.445C3.35921 28.7737 3.55004 29.0758 3.78858 29.3409C4.02711 29.6006 4.30805 29.8232 4.61549 29.9876C4.92294 30.1519 5.26218 30.2579 5.60673 30.3056C6.29583 30.401 7.00613 30.242 7.57331 29.8657C6.96373 30.1731 6.26933 30.2738 5.62794 30.1413ZM5.03951 26.1222C4.92289 26.2229 4.81688 26.3448 4.73206 26.4773C4.64195 26.6099 4.58364 26.7583 4.52533 26.9279C4.47763 27.0816 4.46173 27.2407 4.45643 27.3997C4.46173 27.5587 4.47763 27.7177 4.52533 27.8714C4.57304 28.0252 4.64195 28.1736 4.72676 28.3114C4.81688 28.4439 4.92819 28.5711 5.05011 28.6825C5.17203 28.7938 5.31515 28.8839 5.46887 28.9581L5.58549 29.0058L5.61729 29.0164L5.6491 29.027L5.7127 29.0482C5.76925 29.0694 5.82579 29.0812 5.88233 29.093C5.9106 29.0989 5.93887 29.1048 5.96714 29.1118C5.79222 29.1118 5.61729 29.0906 5.44236 29.0429C5.27274 28.9899 5.10842 28.9104 4.9547 28.8097C4.80097 28.7037 4.66845 28.5764 4.55184 28.4333C4.44052 28.2902 4.35041 28.1259 4.2815 27.951C4.21259 27.776 4.17549 27.5905 4.16488 27.3997C4.15428 27.2142 4.17549 27.0233 4.21789 26.8378C4.2709 26.6523 4.33981 26.4774 4.44052 26.313C4.54124 26.154 4.66315 26.0056 4.80627 25.8784C4.95469 25.7511 5.11372 25.6504 5.28864 25.5709C5.46357 25.4967 5.64909 25.449 5.83992 25.4225C6.03075 25.4013 6.22158 25.4119 6.4071 25.4437C6.59263 25.4808 6.77285 25.5391 6.93718 25.6292C7.1015 25.7193 7.25522 25.8307 7.38244 25.9632C7.50966 26.0957 7.61568 26.2441 7.70049 26.4084C7.78 26.5728 7.833 26.7477 7.86481 26.9226C7.89131 27.1028 7.88601 27.2778 7.85951 27.4527C7.85849 27.4354 7.85767 27.4182 7.85685 27.4013C7.85343 27.33 7.85013 27.2615 7.83301 27.193L7.8224 27.1293L7.8171 27.0975L7.8065 27.0657L7.7747 26.9438C7.72169 26.7848 7.64748 26.6311 7.55737 26.4932C7.46195 26.3554 7.35064 26.2282 7.22872 26.1222C7.1068 26.0162 6.96898 25.9314 6.82056 25.8625L6.70925 25.8201L6.68274 25.8095L6.65624 25.7989L6.59793 25.783L6.53962 25.767C6.52902 25.7644 6.51974 25.7631 6.51047 25.7617C6.50119 25.7604 6.49191 25.7591 6.48131 25.7564C6.46276 25.7538 6.44288 25.7498 6.42301 25.7458C6.40313 25.7419 6.38325 25.7379 6.3647 25.7352C6.20567 25.714 6.04665 25.714 5.88763 25.7352C5.73391 25.7617 5.58019 25.8042 5.43706 25.8678C5.29394 25.9314 5.16143 26.0215 5.03951 26.1222Z" fill="url(#paint0_linear_5814_30)"/>
<defs>
<linearGradient id="paint0_linear_5814_30" x1="-4.83368" y1="11.9764" x2="12.2346" y2="35.9882" gradientUnits="userSpaceOnUse">
<stop stop-color="#DEFEBB"/>
<stop offset="1" stop-color="#07AB67"/>
</linearGradient>
</defs>
</svg>
